<svg width="40" height="40" viewBox="0 0 40 40" fill="none" xmlns="http://www.w3.org/2000/svg">
<path d="M22.0476 9C24.3358 9 26.1798 9.76825 27.5796 11.3048C28.9795 12.8413 29.6794 14.9086 29.6794 17.5067V30.4971H25.3184V17.8C25.3184 16.3752 24.9684 15.2578 24.2685 14.4476C23.5685 13.6375 22.6129 13.2324 21.4015 13.2324C20.0286 13.2324 18.9517 13.7073 18.1711 14.6571C17.3904 15.579 17 16.9479 17 18.7638V30.4971H12.639V17.8C12.639 16.3473 12.3025 15.2298 11.6295 14.4476C10.9834 13.6375 10.0547 13.2324 8.84325 13.2324C7.49725 13.2324 6.40698 13.7073 5.57246 14.6571C4.76486 15.607 4.36106 16.9759 4.36106 18.7638V30.4971H0V9.54476H4.36106V12.059C5.65322 10.0197 7.57801 9 10.1354 9C12.7197 9 14.6311 10.1035 15.8694 12.3105C17.1885 10.1035 19.2479 9 22.0476 9Z" fill="#6C73FC"/>
<path d="M36.9715 24.7143C37.806 24.7143 38.5194 25.0216 39.1116 25.6362C39.7039 26.2508 40 26.9911 40 27.8571C40 28.7232 39.7039 29.4635 39.1116 30.0781C38.5194 30.6927 37.806 31 36.9715 31C36.137 31 35.4236 30.6927 34.8313 30.0781C34.2391 29.4635 33.943 28.7232 33.943 27.8571C33.943 26.9911 34.2256 26.2508 34.791 25.6362C35.3832 25.0216 36.11 24.7143 36.9715 24.7143Z" fill="#6C73FC"/>
</svg>
